HIERARCHY
ROOT Hips
{
     OFFSET 14.45940 93.76930 -21.77700
     CHANNELS 6 Xposition Yposition Zposition Zrotation Xrotation Yrotation
     JOINT Spine
     {
          OFFSET -0.00000 11.89050 0.00000
          CHANNELS 3 Zrotation Xrotation Yrotation
          JOINT Spine1
          {
               OFFSET -0.00000 25.65740 0.12766
               CHANNELS 3 Zrotation Xrotation Yrotation
               JOINT HEad
               {
                    OFFSET -0.00000 8.73416 0.01134
                    CHANNELS 3 Zrotation Xrotation Yrotation
                    End Site
                    {
                         OFFSET -0.29000 12.77420 2.51395
                    }
               }
               JOINT LeftShoulder1
               {
                    OFFSET 8.99000 -0.36225 -0.22000
                    CHANNELS 3 Zrotation Xrotation Yrotation
                    JOINT LeftArm
                    {
                         OFFSET 10.28270 -0.00338 0.32212
                         CHANNELS 3 Zrotation Xrotation Yrotation
                         JOINT LeftForeArm
                         {
                              OFFSET 32.76690 0.09914 -1.42434
                              CHANNELS 3 Zrotation Xrotation Yrotation
                              JOINT LeftHand
                              {
                                   OFFSET 27.56430 0.08536 1.02216
                                   CHANNELS 3 Zrotation Xrotation Yrotation
                                   End Site
                                   {
                                        OFFSET 16.74430 -0.60000 1.50291
                                   }
                              }
                         }
                    }
               }
               JOINT RightShoulder
               {
                    OFFSET -8.99000 -0.36225 -0.22000
                    CHANNELS 3 Zrotation Xrotation Yrotation
                    JOINT RightArm
                    {
                         OFFSET -10.28270 -0.00338 0.32212
                         CHANNELS 3 Zrotation Xrotation Yrotation
                         JOINT RightForeArm
                         {
                              OFFSET -32.89710 0.09914 -1.42434
                              CHANNELS 3 Zrotation Xrotation Yrotation
                              JOINT RightHand
                              {
                                   OFFSET -27.49210 0.08536 1.02216
                                   CHANNELS 3 Zrotation Xrotation Yrotation
                                   End Site
                                   {
                                        OFFSET -16.63120 -0.60000 1.50291
                                   }
                              }
                         }
                    }
               }
          }
     }
     JOINT LeftUpLeg
     {
          OFFSET 8.94580 -8.66707 0.10165
          CHANNELS 3 Zrotation Xrotation Yrotation
          JOINT LeftLeg
          {
               OFFSET -0.00000 -44.42270 1.37270
               CHANNELS 3 Zrotation Xrotation Yrotation
               JOINT LeftFoot
               {
                    OFFSET -0.25355 -42.09240 -1.46059
                    CHANNELS 3 Zrotation Xrotation Yrotation
                    JOINT LeftToes
                    {
                         OFFSET -0.04000 -4.41509 8.49910
                         CHANNELS 3 Zrotation Xrotation Yrotation
                         End Site
                         {
                              OFFSET 0.08000 -0.04745 9.77979
                         }
                    }
               }
          }
     }
     JOINT RightUpLeg
     {
          OFFSET -8.94580 -8.66707 0.10165
          CHANNELS 3 Zrotation Xrotation Yrotation
          JOINT RightLeg
          {
               OFFSET -0.00000 -44.42270 1.37270
               CHANNELS 3 Zrotation Xrotation Yrotation
               JOINT RightFoot
               {
                    OFFSET 0.25355 -42.09240 -1.46059
                    CHANNELS 3 Zrotation Xrotation Yrotation
                    JOINT RightToes
                    {
                         OFFSET 0.04000 -4.41509 8.49910
                         CHANNELS 3 Zrotation Xrotation Yrotation
                         End Site
                         {
                              OFFSET -0.08000 -0.13745 9.77979
                         }
                    }
               }
          }
     }
}
MOTION
Frames: 13
Frame Time: 0.01667
14.45940 93.76930 -21.77700 -9.81298 -11.57300 -39.21280 1.61975 10.91140 -2.05263 0.35494 21.92080 -3.32719 1.11135 -10.49480 17.15020 -0.00000 0.00000 -0.00000 -164.36099 -62.21470 -137.88901 -65.80900 62.71490 -51.48780 16.42760 7.63932 -12.13400 15.31030 0.91068 2.51471 85.57440 0.12056 75.70360 21.40840 33.61660 95.30640 20.89370 11.78520 5.70085 24.07200 -2.39379 -17.85020 -21.51080 6.59342 62.97540 -4.44288 11.73680 0.66299 6.69611 -14.91250 -50.88390 -19.32790 2.05418 9.36618 38.92410 17.35100 -36.38960 -36.72240 -1.72169 1.84799 9.36541 -44.17450 19.34110 
14.59340 93.85030 -21.37750 -9.76575 -11.63190 -39.79930 1.15698 10.95330 -1.98917 0.26889 21.95850 -3.30690 1.14403 -10.53570 17.41480 -0.00000 0.00000 -0.00000 -163.24800 -62.94270 -137.18100 -64.35990 62.21880 -52.83550 16.34460 7.64676 -12.16770 15.38020 0.91471 2.52198 85.45860 0.19009 75.56490 21.54420 33.74970 95.49960 20.95520 11.78620 5.67710 24.14270 -1.90159 -17.72360 -22.16110 6.06713 64.10540 -3.91586 11.72640 0.57380 6.67755 -15.13000 -51.37180 -19.66570 2.07272 9.64382 38.74400 17.37320 -35.89070 -36.68920 -1.60739 1.88470 9.43107 -44.40510 19.31380 
14.73170 93.93480 -20.97450 -9.68802 -11.68070 -40.30760 0.70935 10.99700 -1.94466 0.21129 22.00150 -3.33814 1.12828 -10.59160 17.61630 -0.00000 0.00000 -0.00000 -163.73700 -63.22510 -137.72200 -64.43970 62.17380 -52.84850 16.25060 7.65109 -12.23590 15.30770 0.90951 2.50873 85.40630 0.29844 75.47290 21.53130 33.85720 95.75900 21.07760 11.78730 5.62577 24.16570 -1.47019 -17.56210 -22.79290 5.58525 65.14670 -3.41121 11.60480 0.48587 6.58287 -15.66890 -51.94320 -20.01100 2.09798 9.85201 38.51920 17.38020 -35.37420 -36.67570 -1.43172 1.94325 9.53286 -44.74850 19.28650 
14.89020 93.98910 -20.54740 -9.63909 -11.69040 -40.75990 0.40819 11.03560 -1.93043 0.18386 22.05030 -3.40231 1.04218 -10.63010 17.78210 -0.00000 0.00000 -0.00000 -165.49699 -63.12790 -139.25000 -65.73200 62.48770 -51.78290 16.16640 7.64677 -12.35750 15.17810 0.89928 2.47946 85.33980 0.43646 75.43010 21.40200 33.92660 96.08140 21.23220 11.77700 5.50015 24.18430 -1.24703 -17.50830 -23.47130 5.40184 66.25950 -3.05006 11.38210 0.42084 6.43162 -16.41370 -52.55050 -20.31270 2.10225 9.98956 38.27230 17.45500 -34.88480 -36.66260 -1.23364 2.00931 9.69064 -45.22040 19.30630 
15.08360 93.98470 -20.07930 -9.67531 -11.62420 -41.19770 0.35798 11.05750 -1.94767 0.25317 22.08870 -3.46684 0.93742 -10.63280 17.95640 -0.00000 0.00000 -0.00000 -166.61700 -63.08970 -140.18800 -66.48520 62.71190 -51.29460 16.13580 7.64019 -12.43860 15.08530 0.89096 2.45268 85.18160 0.58136 75.41730 21.21450 33.94340 96.43190 21.36150 11.75380 5.32109 24.25020 -1.36497 -17.66730 -24.27210 5.76322 67.55960 -3.00789 11.00910 0.40639 6.27001 -17.14870 -53.08650 -20.53910 2.06574 10.08440 38.06070 17.61760 -34.46180 -36.64960 -1.04644 2.07164 9.92547 -45.83280 19.42290 
15.29880 93.97100 -19.59440 -9.72437 -11.54780 -41.65150 0.28800 11.07280 -1.94781 0.32353 22.11320 -3.50870 0.91862 -10.65770 18.17700 -0.00000 0.00000 -0.00000 -167.34300 -63.08600 -140.75900 -66.95000 62.88880 -51.08080 16.16130 7.62725 -12.50520 15.05880 0.88641 2.43269 84.90470 0.74965 75.40240 20.99430 33.86940 96.78830 21.43970 11.72750 5.15048 24.34240 -1.58728 -18.09210 -25.20670 6.18059 69.06400 -3.05323 10.66200 0.40665 6.10931 -17.82400 -53.46660 -20.79710 2.04671 10.23570 37.88310 17.68550 -34.09020 -36.65750 -0.81546 2.15006 10.23600 -46.55590 19.65180 
15.53390 93.95000 -19.09580 -9.77972 -11.46540 -42.12930 0.18132 11.08280 -1.93141 0.39440 22.12460 -3.53493 1.06443 -10.81160 18.46150 -0.00000 0.00000 -0.00000 -167.85600 -63.08490 -141.12801 -67.29980 63.01810 -50.94560 16.20360 7.61750 -12.53010 15.03450 0.87825 2.39170 84.66450 0.93632 75.38480 20.82860 33.80660 97.05120 21.44840 11.70790 5.04521 24.46490 -1.92876 -18.73920 -26.29980 6.67051 70.75610 -3.09837 10.46490 0.40974 5.90872 -18.60270 -53.66870 -21.09140 2.02881 10.47720 37.75320 17.66530 -33.77620 -36.64180 -0.56918 2.23202 10.57530 -47.28640 19.94180 
15.78480 93.92840 -18.59140 -9.81784 -11.39280 -42.61430 0.02994 11.09560 -1.90740 0.46715 22.13770 -3.56468 1.37284 -11.15580 18.82070 -0.00000 0.00000 -0.00000 -168.09000 -63.09800 -141.24300 -67.41380 63.05960 -50.99910 16.21910 7.62237 -12.47790 14.92360 0.85420 2.27863 84.56270 1.19454 75.37490 20.77000 33.78730 97.18190 21.40280 11.69620 5.00445 24.61350 -2.38807 -19.48480 -27.56150 7.22350 72.53450 -3.03550 10.54210 0.40140 5.63116 -19.63980 -53.77730 -21.43430 2.00029 10.81130 37.66710 17.57730 -33.49300 -36.55900 -0.33804 2.30400 10.86470 -47.88440 20.19820 
16.04340 93.91770 -18.09000 -9.81688 -11.34430 -43.09920 -0.18930 11.11970 -1.87362 0.53056 22.16710 -3.59739 1.74174 -11.61680 19.24160 -0.00000 0.00000 -0.00000 -168.09300 -63.11470 -141.13800 -67.23050 63.04950 -51.29110 16.21070 7.64004 -12.35870 14.72530 0.81322 2.08473 84.58970 1.54288 75.37580 20.81280 33.79370 97.21860 21.34360 11.68910 4.99287 24.78990 -2.92321 -20.07860 -28.94750 7.84261 74.17630 -2.83518 10.96380 0.37751 5.28132 -20.92920 -54.00170 -21.83980 1.96871 11.20670 37.60730 17.42060 -33.18340 -36.41310 -0.12747 2.36406 11.05660 -48.27210 20.36880 
16.30060 93.92790 -17.59170 -9.76324 -11.32190 -43.59300 -0.51324 11.15420 -1.81892 0.56380 22.20930 -3.61838 2.00818 -12.00380 19.66160 -0.00000 0.00000 -0.00000 -168.10001 -63.10130 -141.00800 -66.92270 63.07630 -51.64630 16.21770 7.65913 -12.21260 14.54490 0.76992 1.86986 84.63920 1.93043 75.36690 20.88920 33.78570 97.25470 21.33400 11.68210 4.96077 24.99540 -3.47287 -20.25270 -30.35690 8.56613 75.42230 -2.51968 11.74250 0.33876 4.87207 -22.39420 -54.56010 -22.32610 1.95810 11.60030 37.55720 17.16750 -32.79190 -36.27330 0.10312 2.43065 11.17180 -48.50210 20.47090 
16.55210 93.95980 -17.08560 -9.64796 -11.31910 -44.10580 -0.96379 11.19240 -1.73563 0.55409 22.25030 -3.61772 2.05054 -12.16420 20.00030 -0.00000 0.00000 -0.00000 -168.39900 -63.00150 -141.08800 -66.85860 63.19580 -51.71100 16.25700 7.67179 -12.07910 14.46910 0.73451 1.67797 84.62710 2.31266 75.32890 20.92960 33.74040 97.36590 21.42310 11.67190 4.86958 25.21220 -3.99261 -19.86520 -31.66100 9.44646 76.07960 -2.11776 12.85210 0.28468 4.38806 -24.01620 -55.50870 -22.92560 1.99530 11.91920 37.52240 16.77660 -32.28990 -36.24190 0.43750 2.53954 11.27370 -48.73410 20.53100 
16.80040 94.00100 -16.55260 -9.47320 -11.32360 -44.64390 -1.51630 11.23140 -1.62706 0.50841 22.28740 -3.59507 1.86667 -12.10430 20.22340 -0.00000 0.00000 -0.00000 -168.99001 -62.78950 -141.36900 -67.15110 63.37280 -51.38660 16.29460 7.68115 -11.97190 14.46400 0.70030 1.47942 84.55680 2.71924 75.27410 20.89060 33.64550 97.57370 21.60930 11.66180 4.73937 25.42030 -4.46609 -18.96690 -32.75000 10.49620 76.08770 -1.67785 14.21330 0.21791 3.79579 -25.83450 -56.70510 -23.66010 2.08596 12.11410 37.52580 16.23900 -31.68830 -36.38700 0.94637 2.72091 11.41640 -49.13030 20.54210 
17.05860 93.96800 -15.93170 -9.25631 -11.31060 -45.19890 -2.11431 11.27200 -1.51880 0.44485 22.32340 -3.56019 1.56495 -11.94300 20.37660 -0.00000 0.00000 -0.00000 -169.54800 -62.52800 -141.59000 -67.47420 63.50870 -51.00710 16.27980 7.69594 -11.88030 14.44360 0.65802 1.23605 84.46420 3.18480 75.23430 20.76280 33.50930 97.84330 21.82980 11.66140 4.64681 25.58520 -5.07085 -17.73540 -33.63370 12.00720 75.57940 -1.44664 15.56690 0.18283 3.08267 -27.85150 -57.91710 -24.51680 2.07134 12.14560 37.64290 15.89580 -31.12810 -36.59870 1.47077 2.91471 11.58780 -49.72410 20.43860 
